<svg width="33" height="33" viewBox="0 0 33 33" fill="none" xmlns="http://www.w3.org/2000/svg">
<path d="M24.7725 10.8486C23.2588 9.63755 21.4423 9.03207 19.5249 8.93114L19.2221 9.23392C20.9377 9.63755 22.4515 10.4449 23.8643 11.555C22.1487 10.6467 20.2313 10.0412 18.2129 9.8394C17.6074 9.73847 17.1028 9.73847 16.4973 9.73847C15.8918 9.73847 15.3872 9.73847 14.7817 9.8394C12.7634 10.0412 10.8459 10.6467 9.13034 11.555C10.5432 10.4449 12.057 9.63755 13.7725 9.23392L13.4698 8.93114C11.5523 9.03207 9.73582 9.63755 8.22209 10.8486C6.50649 14.078 5.59824 17.711 5.49732 21.4449C7.01106 23.0596 9.13034 24.0688 11.3506 24.0688C11.3506 24.0688 12.057 23.2615 12.5615 22.555C11.2496 22.2523 10.0386 21.5458 9.23127 20.4358C9.93767 20.8394 10.6441 21.2431 11.3506 21.5458C12.2588 21.9495 13.1671 22.1513 14.0753 22.3532C14.8827 22.4541 15.69 22.555 16.4973 22.555C17.3046 22.555 18.112 22.4541 18.9193 22.3532C19.8276 22.1513 20.7358 21.9495 21.6441 21.5458C22.3505 21.2431 23.057 20.8394 23.7634 20.4358C22.956 21.5458 21.745 22.2523 20.4331 22.555C20.9377 23.2615 21.6441 24.0688 21.6441 24.0688C23.8643 24.0688 25.9836 23.0596 27.4973 21.4449C27.3964 17.711 26.4881 14.078 24.7725 10.8486ZM13.1671 19.6284C12.1579 19.6284 11.2496 18.7201 11.2496 17.6101C11.2496 16.5 12.1579 15.5917 13.1671 15.5917C14.1762 15.5917 15.0845 16.5 15.0845 17.6101C15.0845 18.7201 14.1762 19.6284 13.1671 19.6284ZM19.8276 19.6284C18.8184 19.6284 17.9101 18.7201 17.9101 17.6101C17.9101 16.5 18.8184 15.5917 19.8276 15.5917C20.8367 15.5917 21.745 16.5 21.745 17.6101C21.745 18.7201 20.8367 19.6284 19.8276 19.6284Z" fill="black"/>
</svg>
