<svg width="748" height="39" viewBox="0 0 748 39" fill="none" xmlns="http://www.w3.org/2000/svg">
<path d="M-0.000734682 37.3619V2.3051H12.3892L19.5927 20.794H20.5531L27.7086 2.3051H40.3386V37.3619H31.5024V7.44357L32.8951 7.53961L23.8667 30.3026H15.7508L6.67447 7.53961L8.16319 7.44357V37.3619H-0.000734682ZM59.5134 38.3224C57.2723 38.3224 55.2873 37.9382 53.5585 37.1699C51.8297 36.4015 50.373 35.361 49.1884 34.0484C48.0038 32.7357 47.0914 31.263 46.4511 29.6302C45.8428 27.9974 45.5386 26.3166 45.5386 24.5878V23.6273C45.5386 21.8345 45.8428 20.1217 46.4511 18.4889C47.0914 16.8241 47.9878 15.3514 49.1404 14.0708C50.3249 12.7901 51.7656 11.7817 53.4625 11.0453C55.1593 10.2769 57.0802 9.89275 59.2252 9.89275C62.0746 9.89275 64.4918 10.5331 66.4767 11.8137C68.4617 13.0943 69.9824 14.7911 71.0389 16.9041C72.0954 18.9851 72.6237 21.2582 72.6237 23.7234V26.5087H49.1884V21.8025H67.5812L64.5558 23.9155C64.5558 22.4108 64.3477 21.1462 63.9315 20.1217C63.5473 19.0652 62.955 18.2648 62.1546 17.7205C61.3863 17.1762 60.4098 16.9041 59.2252 16.9041C58.0727 16.9041 57.0642 17.1762 56.1998 17.7205C55.3674 18.2328 54.7271 19.0331 54.2788 20.1217C53.8306 21.1782 53.6065 22.5228 53.6065 24.1556C53.6065 25.6283 53.8146 26.9089 54.2308 27.9974C54.647 29.054 55.2873 29.8703 56.1517 30.4466C57.0162 31.0229 58.1367 31.311 59.5134 31.311C60.7299 31.311 61.7224 31.1029 62.4908 30.6867C63.2912 30.2705 63.8514 29.7103 64.1716 29.0059H72.1434C71.7592 30.7988 70.9909 32.3996 69.8383 33.8082C68.7178 35.2169 67.2771 36.3214 65.5162 37.1218C63.7874 37.9222 61.7865 38.3224 59.5134 38.3224ZM89.6685 38.3224C87.4274 38.3224 85.4424 37.9382 83.7136 37.1699C81.9848 36.4015 80.5281 35.361 79.3435 34.0484C78.1589 32.7357 77.2465 31.263 76.6062 29.6302C75.9979 27.9974 75.6938 26.3166 75.6938 24.5878V23.6273C75.6938 21.8345 75.9979 20.1217 76.6062 18.4889C77.2465 16.8241 78.1429 15.3514 79.2955 14.0708C80.4801 12.7901 81.9207 11.7817 83.6176 11.0453C85.3144 10.2769 87.2353 9.89275 89.3803 9.89275C92.2297 9.89275 94.6469 10.5331 96.6318 11.8137C98.6168 13.0943 100.138 14.7911 101.194 16.9041C102.251 18.9851 102.779 21.2582 102.779 23.7234V26.5087H79.3435V21.8025H97.7363L94.7109 23.9155C94.7109 22.4108 94.5028 21.1462 94.0866 20.1217C93.7024 19.0652 93.1101 18.2648 92.3097 17.7205C91.5414 17.1762 90.5649 16.9041 89.3803 16.9041C88.2278 16.9041 87.2193 17.1762 86.3549 17.7205C85.5225 18.2328 84.8822 19.0331 84.434 20.1217C83.9857 21.1782 83.7616 22.5228 83.7616 24.1556C83.7616 25.6283 83.9697 26.9089 84.3859 27.9974C84.8021 29.054 85.4424 29.8703 86.3069 30.4466C87.1713 31.0229 88.2918 31.311 89.6685 31.311C90.8851 31.311 91.8775 31.1029 92.6459 30.6867C93.4463 30.2705 94.0066 29.7103 94.3267 29.0059H102.299C101.914 30.7988 101.146 32.3996 99.9934 33.8082C98.8729 35.2169 97.4322 36.3214 95.6714 37.1218C93.9425 37.9222 91.9416 38.3224 89.6685 38.3224ZM120.016 37.7461C117.134 37.7461 114.829 37.394 113.1 36.6896C111.404 35.9853 110.171 34.8167 109.403 33.1839C108.634 31.5512 108.25 29.3421 108.25 26.5568L108.298 3.93788H116.366L116.318 26.7969C116.318 27.9814 116.622 28.8939 117.23 29.5342C117.871 30.1425 118.783 30.4466 119.968 30.4466H123.617V37.7461H120.016ZM104.408 17.1923V10.8532H123.617V17.1923H104.408ZM150.734 37.7461C147.852 37.7461 145.547 37.394 143.818 36.6896C142.121 35.9853 140.889 34.8167 140.12 33.1839C139.352 31.5512 138.968 29.3421 138.968 26.5568L139.016 3.93788H147.084L147.036 26.7969C147.036 27.9814 147.34 28.8939 147.948 29.5342C148.589 30.1425 149.501 30.4466 150.686 30.4466H154.335V37.7461H150.734ZM135.126 17.1923V10.8532H154.335V17.1923H135.126ZM159.02 37.3619V2.3051H167.76V22.2827H166.607C166.607 19.5934 166.944 17.3363 167.616 15.5114C168.288 13.6866 169.265 12.3099 170.545 11.3815C171.858 10.453 173.475 9.98879 175.396 9.98879H175.78C178.661 9.98879 180.854 11.0293 182.359 13.1103C183.896 15.1913 184.664 18.2488 184.664 22.2827V37.3619H175.924V21.9465C175.924 20.73 175.556 19.7375 174.819 18.9691C174.083 18.1687 173.107 17.7685 171.89 17.7685C170.673 17.7685 169.681 18.1687 168.913 18.9691C168.144 19.7375 167.76 20.762 167.76 22.0426V37.3619H159.02ZM202.973 38.3224C200.732 38.3224 198.747 37.9382 197.018 37.1699C195.289 36.4015 193.833 35.361 192.648 34.0484C191.463 32.7357 190.551 31.263 189.911 29.6302C189.302 27.9974 188.998 26.3166 188.998 24.5878V23.6273C188.998 21.8345 189.302 20.1217 189.911 18.4889C190.551 16.8241 191.447 15.3514 192.6 14.0708C193.784 12.7901 195.225 11.7817 196.922 11.0453C198.619 10.2769 200.54 9.89275 202.685 9.89275C205.534 9.89275 207.951 10.5331 209.936 11.8137C211.921 13.0943 213.442 14.7911 214.498 16.9041C215.555 18.9851 216.083 21.2582 216.083 23.7234V26.5087H192.648V21.8025H211.041L208.015 23.9155C208.015 22.4108 207.807 21.1462 207.391 20.1217C207.007 19.0652 206.415 18.2648 205.614 17.7205C204.846 17.1762 203.869 16.9041 202.685 16.9041C201.532 16.9041 200.524 17.1762 199.659 17.7205C198.827 18.2328 198.187 19.0331 197.738 20.1217C197.29 21.1782 197.066 22.5228 197.066 24.1556C197.066 25.6283 197.274 26.9089 197.69 27.9974C198.107 29.054 198.747 29.8703 199.611 30.4466C200.476 31.0229 201.596 31.311 202.973 31.311C204.189 31.311 205.182 31.1029 205.95 30.6867C206.751 30.2705 207.311 29.7103 207.631 29.0059H215.603C215.219 30.7988 214.45 32.3996 213.298 33.8082C212.177 35.2169 210.737 36.3214 208.976 37.1218C207.247 37.9222 205.246 38.3224 202.973 38.3224ZM237.887 37.3619V9.12438H246.819V37.3619H237.887ZM228.283 10.0848V2.3051H256.424V10.0848H228.283ZM269.614 38.3224C267.373 38.3224 265.388 37.9382 263.659 37.1699C261.931 36.4015 260.474 35.361 259.289 34.0484C258.105 32.7357 257.192 31.263 256.552 29.6302C255.944 27.9974 255.64 26.3166 255.64 24.5878V23.6273C255.64 21.8345 255.944 20.1217 256.552 18.4889C257.192 16.8241 258.089 15.3514 259.241 14.0708C260.426 12.7901 261.867 11.7817 263.563 11.0453C265.26 10.2769 267.181 9.89275 269.326 9.89275C272.176 9.89275 274.593 10.5331 276.578 11.8137C278.563 13.0943 280.083 14.7911 281.14 16.9041C282.196 18.9851 282.725 21.2582 282.725 23.7234V26.5087H259.289V21.8025H277.682L274.657 23.9155C274.657 22.4108 274.449 21.1462 274.032 20.1217C273.648 19.0652 273.056 18.2648 272.256 17.7205C271.487 17.1762 270.511 16.9041 269.326 16.9041C268.174 16.9041 267.165 17.1762 266.301 17.7205C265.468 18.2328 264.828 19.0331 264.38 20.1217C263.932 21.1782 263.707 22.5228 263.707 24.1556C263.707 25.6283 263.916 26.9089 264.332 27.9974C264.748 29.054 265.388 29.8703 266.253 30.4466C267.117 31.0229 268.238 31.311 269.614 31.311C270.831 31.311 271.823 31.1029 272.592 30.6867C273.392 30.2705 273.952 29.7103 274.273 29.0059H282.244C281.86 30.7988 281.092 32.3996 279.939 33.8082C278.819 35.2169 277.378 36.3214 275.617 37.1218C273.888 37.9222 271.887 38.3224 269.614 38.3224ZM303.371 37.3619V29.5822H301.93V21.2742C301.93 20.0576 301.642 19.1612 301.066 18.5849C300.522 17.9766 299.609 17.6725 298.329 17.6725C297.72 17.6725 296.824 17.6885 295.639 17.7205C294.455 17.7525 293.206 17.8005 291.894 17.8646C290.581 17.9286 289.38 17.9926 288.292 18.0567V10.7572C289.06 10.6931 289.973 10.6291 291.029 10.5651C292.086 10.501 293.174 10.453 294.295 10.421C295.447 10.389 296.504 10.373 297.464 10.373C300.186 10.373 302.491 10.7732 304.38 11.5736C306.301 12.3739 307.757 13.5745 308.75 15.1753C309.774 16.7761 310.286 18.809 310.286 21.2742V37.3619H303.371ZM294.967 38.0343C293.11 38.0343 291.461 37.6981 290.021 37.0258C288.58 36.3535 287.443 35.393 286.611 34.1444C285.811 32.8638 285.411 31.3431 285.411 29.5822C285.411 27.5973 285.939 25.9965 286.995 24.7799C288.052 23.5313 289.508 22.6189 291.365 22.0426C293.222 21.4663 295.351 21.1782 297.752 21.1782H302.891V25.6923H297.752C296.568 25.6923 295.655 25.9965 295.015 26.6048C294.375 27.1811 294.055 27.9654 294.055 28.9579C294.055 29.9184 294.375 30.7027 295.015 31.311C295.655 31.8873 296.568 32.1755 297.752 32.1755C298.521 32.1755 299.193 32.0474 299.769 31.7913C300.378 31.5031 300.874 31.0229 301.258 30.3506C301.642 29.6783 301.866 28.7498 301.93 27.5652L303.947 29.4862C303.787 31.311 303.339 32.8638 302.603 34.1444C301.898 35.393 300.906 36.3535 299.625 37.0258C298.377 37.6981 296.824 38.0343 294.967 38.0343ZM316.127 37.3619V10.8532H323.042V22.2827H322.658C322.658 19.5294 322.994 17.2563 323.666 15.4634C324.37 13.6385 325.395 12.2779 326.74 11.3815C328.084 10.453 329.733 9.98879 331.686 9.98879H332.07C334.055 9.98879 335.704 10.453 337.017 11.3815C338.361 12.2779 339.37 13.6385 340.042 15.4634C340.746 17.2563 341.099 19.5294 341.099 22.2827H339.082C339.082 19.5294 339.418 17.2563 340.09 15.4634C340.794 13.6385 341.819 12.2779 343.164 11.3815C344.508 10.453 346.157 9.98879 348.11 9.98879H348.494C350.479 9.98879 352.144 10.453 353.488 11.3815C354.865 12.2779 355.906 13.6385 356.61 15.4634C357.346 17.2563 357.715 19.5294 357.715 22.2827V37.3619H348.974V22.0426C348.974 20.826 348.638 19.8175 347.966 19.0171C347.326 18.1847 346.397 17.7685 345.18 17.7685C343.964 17.7685 343.003 18.1847 342.299 19.0171C341.627 19.8175 341.291 20.858 341.291 22.1386V37.3619H332.55V22.0426C332.55 20.826 332.214 19.8175 331.542 19.0171C330.902 18.1847 329.973 17.7685 328.757 17.7685C327.54 17.7685 326.58 18.1847 325.875 19.0171C325.203 19.8175 324.867 20.858 324.867 22.1386V37.3619H316.127ZM381.456 37.6501V30.8308H389.188C390.501 30.8308 391.477 30.4946 392.117 29.8223C392.758 29.15 393.078 28.1735 393.078 26.8929C393.078 25.6123 392.758 24.6518 392.117 24.0115C391.477 23.3392 390.501 23.003 389.188 23.003H381.456V17.7205H388.9C391.365 17.7205 393.574 18.0247 395.527 18.6329C397.48 19.2092 399.017 20.1697 400.137 21.5143C401.258 22.859 401.818 24.6518 401.818 26.8929V27.5652C401.818 29.6783 401.322 31.4871 400.329 32.9918C399.337 34.4966 397.88 35.6491 395.959 36.4495C394.038 37.2499 391.685 37.6501 388.9 37.6501H381.456ZM373.773 37.6501V2.01696H382.417V37.6501H373.773ZM381.456 21.6584V16.3759H387.891C389.204 16.3759 390.148 16.0557 390.725 15.4154C391.333 14.7431 391.637 13.8146 391.637 12.6301C391.637 11.4135 391.333 10.485 390.725 9.84472C390.148 9.1724 389.204 8.83624 387.891 8.83624H381.456V2.01696H387.507C391.605 2.01696 394.775 2.88138 397.016 4.61021C399.257 6.30702 400.377 8.74019 400.377 11.9097V12.6301C400.377 14.8391 399.801 16.616 398.649 17.9606C397.528 19.2733 395.991 20.2177 394.038 20.794C392.117 21.3703 389.94 21.6584 387.507 21.6584H381.456ZM419.03 38.3224C416.789 38.3224 414.804 37.9382 413.075 37.1699C411.346 36.4015 409.889 35.361 408.705 34.0484C407.52 32.7357 406.608 31.263 405.968 29.6302C405.359 27.9974 405.055 26.3166 405.055 24.5878V23.6273C405.055 21.8345 405.359 20.1217 405.968 18.4889C406.608 16.8241 407.504 15.3514 408.657 14.0708C409.841 12.7901 411.282 11.7817 412.979 11.0453C414.676 10.2769 416.597 9.89275 418.742 9.89275C421.591 9.89275 424.008 10.5331 425.993 11.8137C427.978 13.0943 429.499 14.7911 430.555 16.9041C431.612 18.9851 432.14 21.2582 432.14 23.7234V26.5087H408.705V21.8025H427.098L424.072 23.9155C424.072 22.4108 423.864 21.1462 423.448 20.1217C423.064 19.0652 422.471 18.2648 421.671 17.7205C420.903 17.1762 419.926 16.9041 418.742 16.9041C417.589 16.9041 416.581 17.1762 415.716 17.7205C414.884 18.2328 414.244 19.0331 413.795 20.1217C413.347 21.1782 413.123 22.5228 413.123 24.1556C413.123 25.6283 413.331 26.9089 413.747 27.9974C414.164 29.054 414.804 29.8703 415.668 30.4466C416.533 31.0229 417.653 31.311 419.03 31.311C420.246 31.311 421.239 31.1029 422.007 30.6867C422.808 30.2705 423.368 29.7103 423.688 29.0059H431.66C431.276 30.7988 430.507 32.3996 429.355 33.8082C428.234 35.2169 426.794 36.3214 425.033 37.1218C423.304 37.9222 421.303 38.3224 419.03 38.3224ZM436.747 37.3619V2.3051H445.487V22.2827H444.335C444.335 19.5934 444.671 17.3363 445.343 15.5114C446.015 13.6866 446.992 12.3099 448.273 11.3815C449.585 10.453 451.202 9.98879 453.123 9.98879H453.507C456.388 9.98879 458.581 11.0293 460.086 13.1103C461.623 15.1913 462.391 18.2488 462.391 22.2827V37.3619H453.651V21.9465C453.651 20.73 453.283 19.7375 452.547 18.9691C451.81 18.1687 450.834 17.7685 449.617 17.7685C448.401 17.7685 447.408 18.1687 446.64 18.9691C445.871 19.7375 445.487 20.762 445.487 22.0426V37.3619H436.747ZM469.511 37.3619V10.8532H478.251V37.3619H469.511ZM466.149 17.1923V10.8532H478.251V17.1923H466.149ZM473.112 8.74019C471.512 8.74019 470.327 8.34 469.559 7.53961C468.822 6.70722 468.454 5.65071 468.454 4.37009C468.454 3.08948 468.822 2.04898 469.559 1.24859C470.327 0.416192 471.496 -8.58719e-06 473.064 -8.58719e-06C474.665 -8.58719e-06 475.834 0.416192 476.57 1.24859C477.306 2.04898 477.675 3.08948 477.675 4.37009C477.675 5.65071 477.306 6.70722 476.57 7.53961C475.834 8.34 474.681 8.74019 473.112 8.74019ZM484.676 37.3619V10.8532H491.592V22.2347H491.207C491.207 19.4814 491.56 17.2083 492.264 15.4154C492.968 13.5905 494.009 12.2299 495.385 11.3334C496.794 10.437 498.491 9.98879 500.476 9.98879H500.86C503.869 9.98879 506.191 10.9973 507.823 13.0142C509.488 14.9992 510.321 18.0567 510.321 22.1867V37.3619H501.58V21.9465C501.58 20.73 501.212 19.7375 500.476 18.9691C499.772 18.1687 498.795 17.7685 497.546 17.7685C496.298 17.7685 495.289 18.1687 494.521 18.9691C493.785 19.7375 493.416 20.762 493.416 22.0426V37.3619H484.676ZM527.093 38.2264C525.236 38.2264 523.539 37.8902 522.002 37.2179C520.497 36.5456 519.185 35.6171 518.064 34.4325C516.976 33.216 516.127 31.7913 515.519 30.1585C514.943 28.5257 514.655 26.7488 514.655 24.8279V23.6754C514.655 21.7544 514.927 19.9776 515.471 18.3448C516.047 16.68 516.864 15.2393 517.92 14.0227C518.977 12.7741 520.257 11.8137 521.762 11.1413C523.267 10.437 524.948 10.0848 526.804 10.0848C528.95 10.0848 530.774 10.5651 532.279 11.5255C533.816 12.454 534.984 13.8146 535.785 15.6075C536.617 17.4004 537.065 19.5774 537.129 22.1386L535.112 20.6499V2.3051H543.853V37.3619H536.937V26.6048H537.898C537.834 28.9739 537.354 31.0389 536.457 32.7998C535.561 34.5286 534.312 35.8732 532.711 36.8337C531.143 37.7621 529.27 38.2264 527.093 38.2264ZM529.446 31.0229C530.502 31.0229 531.463 30.7828 532.327 30.3026C533.224 29.8223 533.944 29.118 534.488 28.1895C535.032 27.2611 535.305 26.1406 535.305 24.8279V23.1951C535.305 21.9145 535.016 20.842 534.44 19.9776C533.896 19.1132 533.176 18.4569 532.279 18.0086C531.415 17.5284 530.47 17.2883 529.446 17.2883C528.293 17.2883 527.253 17.5924 526.324 18.2007C525.428 18.777 524.707 19.5934 524.163 20.6499C523.651 21.6744 523.395 22.875 523.395 24.2516C523.395 25.6283 523.651 26.8289 524.163 27.8534C524.707 28.8459 525.428 29.6302 526.324 30.2065C527.253 30.7508 528.293 31.0229 529.446 31.0229Z" fill="black"/>
<path d="M560.378 37.3619V2.3051H569.31V37.3619H560.378ZM568.35 37.3619V29.5822H582.565V37.3619H568.35ZM602.999 37.3619V29.5822H601.559V21.2742C601.559 20.0576 601.271 19.1612 600.694 18.5849C600.15 17.9766 599.238 17.6725 597.957 17.6725C597.349 17.6725 596.452 17.6885 595.268 17.7205C594.083 17.7525 592.835 17.8005 591.522 17.8646C590.209 17.9286 589.009 17.9926 587.92 18.0567V10.7572C588.689 10.6931 589.601 10.6291 590.658 10.5651C591.714 10.501 592.803 10.453 593.923 10.421C595.076 10.389 596.132 10.373 597.093 10.373C599.814 10.373 602.119 10.7732 604.008 11.5736C605.929 12.3739 607.386 13.5745 608.378 15.1753C609.403 16.7761 609.915 18.809 609.915 21.2742V37.3619H602.999ZM594.595 38.0343C592.739 38.0343 591.09 37.6981 589.649 37.0258C588.208 36.3535 587.072 35.393 586.239 34.1444C585.439 32.8638 585.039 31.3431 585.039 29.5822C585.039 27.5973 585.567 25.9965 586.624 24.7799C587.68 23.5313 589.137 22.6189 590.994 22.0426C592.851 21.4663 594.98 21.1782 597.381 21.1782H602.519V25.6923H597.381C596.196 25.6923 595.284 25.9965 594.643 26.6048C594.003 27.1811 593.683 27.9654 593.683 28.9579C593.683 29.9184 594.003 30.7027 594.643 31.311C595.284 31.8873 596.196 32.1755 597.381 32.1755C598.149 32.1755 598.821 32.0474 599.398 31.7913C600.006 31.5031 600.502 31.0229 600.886 30.3506C601.271 29.6783 601.495 28.7498 601.559 27.5652L603.576 29.4862C603.416 31.311 602.967 32.8638 602.231 34.1444C601.527 35.393 600.534 36.3535 599.254 37.0258C598.005 37.6981 596.452 38.0343 594.595 38.0343ZM626.656 38.2264C624.799 38.2264 623.102 37.8902 621.566 37.2179C620.061 36.5456 618.748 35.6171 617.628 34.4325C616.539 33.216 615.691 31.7913 615.083 30.1585C614.506 28.5257 614.218 26.7488 614.218 24.8279V23.6754C614.218 21.7544 614.49 19.9776 615.035 18.3448C615.611 16.68 616.427 15.2393 617.484 14.0227C618.54 12.7741 619.821 11.8137 621.326 11.1413C622.83 10.437 624.511 10.0848 626.368 10.0848C628.513 10.0848 630.338 10.5651 631.843 11.5255C633.379 12.454 634.548 13.8146 635.348 15.6075C636.181 17.4004 636.629 19.5774 636.693 22.1386L634.676 20.6499V2.3051H643.416V37.3619H636.501V26.6048H637.461C637.397 28.9739 636.917 31.0389 636.021 32.7998C635.124 34.5286 633.876 35.8732 632.275 36.8337C630.706 37.7621 628.833 38.2264 626.656 38.2264ZM629.009 31.0229C630.066 31.0229 631.026 30.7828 631.891 30.3026C632.787 29.8223 633.507 29.118 634.052 28.1895C634.596 27.2611 634.868 26.1406 634.868 24.8279V23.1951C634.868 21.9145 634.58 20.842 634.004 19.9776C633.459 19.1132 632.739 18.4569 631.843 18.0086C630.978 17.5284 630.034 17.2883 629.009 17.2883C627.857 17.2883 626.816 17.5924 625.888 18.2007C624.991 18.777 624.271 19.5934 623.727 20.6499C623.214 21.6744 622.958 22.875 622.958 24.2516C622.958 25.6283 623.214 26.8289 623.727 27.8534C624.271 28.8459 624.991 29.6302 625.888 30.2065C626.816 30.7508 627.857 31.0229 629.009 31.0229ZM660.657 38.2264C658.8 38.2264 657.103 37.8902 655.566 37.2179C654.062 36.5456 652.749 35.6171 651.628 34.4325C650.54 33.216 649.692 31.7913 649.083 30.1585C648.507 28.5257 648.219 26.7488 648.219 24.8279V23.6754C648.219 21.7544 648.491 19.9776 649.035 18.3448C649.611 16.68 650.428 15.2393 651.484 14.0227C652.541 12.7741 653.822 11.8137 655.326 11.1413C656.831 10.437 658.512 10.0848 660.369 10.0848C662.514 10.0848 664.339 10.5651 665.843 11.5255C667.38 12.454 668.549 13.8146 669.349 15.6075C670.181 17.4004 670.63 19.5774 670.694 22.1386L668.677 20.6499V2.3051H677.417V37.3619H670.502V26.6048H671.462C671.398 28.9739 670.918 31.0389 670.021 32.7998C669.125 34.5286 667.876 35.8732 666.276 36.8337C664.707 37.7621 662.834 38.2264 660.657 38.2264ZM663.01 31.0229C664.066 31.0229 665.027 30.7828 665.891 30.3026C666.788 29.8223 667.508 29.118 668.052 28.1895C668.597 27.2611 668.869 26.1406 668.869 24.8279V23.1951C668.869 21.9145 668.581 20.842 668.004 19.9776C667.46 19.1132 666.74 18.4569 665.843 18.0086C664.979 17.5284 664.034 17.2883 663.01 17.2883C661.857 17.2883 660.817 17.5924 659.888 18.2007C658.992 18.777 658.272 19.5934 657.727 20.6499C657.215 21.6744 656.959 22.875 656.959 24.2516C656.959 25.6283 657.215 26.8289 657.727 27.8534C658.272 28.8459 658.992 29.6302 659.888 30.2065C660.817 30.7508 661.857 31.0229 663.01 31.0229ZM696.194 38.3224C693.953 38.3224 691.968 37.9382 690.239 37.1699C688.511 36.4015 687.054 35.361 685.869 34.0484C684.685 32.7357 683.772 31.263 683.132 29.6302C682.524 27.9974 682.22 26.3166 682.22 24.5878V23.6273C682.22 21.8345 682.524 20.1217 683.132 18.4889C683.772 16.8241 684.669 15.3514 685.821 14.0708C687.006 12.7901 688.447 11.7817 690.143 11.0453C691.84 10.2769 693.761 9.89275 695.906 9.89275C698.755 9.89275 701.173 10.5331 703.158 11.8137C705.143 13.0943 706.663 14.7911 707.72 16.9041C708.776 18.9851 709.305 21.2582 709.305 23.7234V26.5087H685.869V21.8025H704.262L701.237 23.9155C701.237 22.4108 701.029 21.1462 700.612 20.1217C700.228 19.0652 699.636 18.2648 698.836 17.7205C698.067 17.1762 697.091 16.9041 695.906 16.9041C694.754 16.9041 693.745 17.1762 692.881 17.7205C692.048 18.2328 691.408 19.0331 690.96 20.1217C690.512 21.1782 690.287 22.5228 690.287 24.1556C690.287 25.6283 690.496 26.9089 690.912 27.9974C691.328 29.054 691.968 29.8703 692.833 30.4466C693.697 31.0229 694.818 31.311 696.194 31.311C697.411 31.311 698.403 31.1029 699.172 30.6867C699.972 30.2705 700.532 29.7103 700.852 29.0059H708.824C708.44 30.7988 707.672 32.3996 706.519 33.8082C705.399 35.2169 703.958 36.3214 702.197 37.1218C700.468 37.9222 698.467 38.3224 696.194 38.3224ZM713.911 37.3619V10.8532H720.827V22.3787H720.731C720.731 18.665 721.499 15.7516 723.036 13.6385C724.605 11.5255 726.846 10.469 729.759 10.469H730.816V17.9606H728.799C726.846 17.9606 725.325 18.4889 724.236 19.5454C723.18 20.6019 722.652 22.1226 722.652 24.1076V37.3619H713.911ZM739.067 37.3619V8.45205L741.18 10.0848H732.536V2.3051H748V37.3619H739.067Z" fill="url(#paint0_linear_895_537)"/>
<defs>
<linearGradient id="paint0_linear_895_537" x1="425.152" y1="-14.6631" x2="425.152" y2="57.3716" gradientUnits="userSpaceOnUse">
<stop offset="0.274038" stop-color="#3B7C46"/>
<stop offset="1" stop-color="#6BE280"/>
</linearGradient>
</defs>
</svg>
