<svg width="265" height="542" viewBox="0 0 265 542" fill="none" xmlns="http://www.w3.org/2000/svg">
<path d="M262.034 536.891C262.78 536.764 263.445 536.347 263.883 535.73C264.321 535.113 264.496 534.347 264.369 533.601C264.242 532.855 263.824 532.19 263.207 531.752C262.59 531.314 261.825 531.14 261.079 531.266C243.234 534.261 224.938 535.901 206.769 536.251C164.922 536.157 102.808 533.367 96.0438 485.756C92.2531 453.704 122.428 431.844 149.617 418.415C163.655 411.269 178.318 405.226 192.786 398.353C199.999 394.878 207.239 391.249 213.973 386.45C220.315 381.868 228.214 374.616 226.922 364.456C226.509 355.712 217.175 350.046 210.232 349.327C202.876 348.098 195.769 348.456 188.785 348.865C174.801 349.811 161.138 351.561 147.421 352.047C120.728 353.444 90.1058 348.28 77.1881 323.816C70.2405 313.393 77.5748 302.039 87.705 295.11C97.7713 287.811 109.264 282.378 120.82 276.918C143.796 266.041 168.064 256.54 188.885 240.422C201.414 230.807 213.164 215.207 210.804 197.664C208.687 181.989 214.541 165.399 208.572 147.987C201.338 130.157 182.102 124.963 166.367 121.257C137.386 114.945 107.789 114.333 78.7558 112.469C51.5696 110.368 14.1848 108.028 9.69889 77.8869C8.45237 71.0117 7.476 64.1112 6.80442 57.2008C5.19972 39.2848 4.84376 20.476 9.58576 3.79153C9.83475 3.07709 9.78973 2.293 9.46061 1.61175C9.13149 0.930508 8.54522 0.407907 7.83078 0.158917C7.11635 -0.0900723 6.33226 -0.0450543 5.65101 0.284067C4.96977 0.613189 4.44716 1.19946 4.19817 1.91389C-1.0868 20.639 -0.460438 39.2331 1.12575 57.7525C1.81357 64.8297 2.81216 71.8842 4.08505 78.9049C6.11797 94.758 20.0491 107.232 34.4216 111.31C48.9002 115.999 63.7647 117.098 78.3728 118.162C107.633 120.03 136.868 120.664 165.156 126.833C180.556 130.309 197.777 135.789 203.253 150.051C208.44 164.306 203.07 181.331 205.132 198.28C207.135 213.197 197.307 226.684 185.331 235.959C165.593 251.282 141.495 260.85 118.403 271.749C106.749 277.269 95.1112 282.71 84.3185 290.519C79.0337 294.476 73.7629 299.072 70.6577 305.678C67.3585 312.287 68.6394 320.742 72.2266 326.633C106.737 385.728 188.843 334.591 221.262 365.171C196.534 413.061 90.0048 407.401 90.3603 486.256C91.7329 511.969 116.098 528.264 137.911 534.254C160.418 540.903 183.816 542.284 206.872 541.956C225.342 541.598 243.856 539.941 262.034 536.891Z" fill="#41934F"/>
</svg>
