<svg width="23" height="23" viewBox="0 0 23 23" fill="none" xmlns="http://www.w3.org/2000/svg">
<path d="M15.9084 13.4165C15.7168 13.3207 14.4709 12.7457 14.2793 12.6499C14.0876 12.5541 13.8959 12.5541 13.7043 12.7457C13.5126 12.9374 13.1293 13.5124 12.9376 13.704C12.8418 13.8957 12.6501 13.8957 12.4584 13.7999C11.7876 13.5124 11.1168 13.129 10.5418 12.6499C10.0626 12.1707 9.58346 11.5957 9.20013 11.0207C9.10429 10.8291 9.20013 10.6374 9.29596 10.5416C9.39179 10.4457 9.48762 10.2541 9.67929 10.1582C9.77512 10.0624 9.87096 9.87073 9.87096 9.7749C9.96679 9.67907 9.96679 9.4874 9.87096 9.39157C9.77512 9.29574 9.29596 8.14574 9.10429 7.66658C9.00846 6.99575 8.81679 6.99575 8.62513 6.99575H8.14596C7.9543 6.99575 7.6668 7.18741 7.57097 7.28325C6.99597 7.85824 6.70847 8.52907 6.70847 9.29574C6.8043 10.1582 7.0918 11.0207 7.6668 11.7874C8.72096 13.3207 10.0626 14.5665 11.6918 15.3332C12.1709 15.5249 12.5543 15.7165 13.0334 15.8124C13.5126 16.004 13.9918 16.004 14.5668 15.9082C15.2376 15.8124 15.8126 15.3332 16.1959 14.7582C16.3876 14.3749 16.3876 13.9915 16.2918 13.6082L15.9084 13.4165ZM18.3042 4.69576C14.5668 0.958279 8.5293 0.958279 4.79181 4.69576C1.72516 7.76241 1.15017 12.4582 3.25849 16.1957L1.91683 21.0832L6.99597 19.7415C8.43346 20.5082 9.96679 20.8915 11.5001 20.8915C16.7709 20.8915 20.9876 16.6749 20.9876 11.4041C21.0834 8.9124 20.0292 6.51658 18.3042 4.69576ZM15.7168 18.1124C14.4709 18.879 13.0334 19.3582 11.5001 19.3582C10.0626 19.3582 8.72096 18.9749 7.47513 18.304L7.18764 18.1124L4.21682 18.879L4.98348 16.004L4.79181 15.7165C2.49183 11.8832 3.64182 7.09158 7.3793 4.69576C11.1168 2.29994 15.9084 3.54577 18.2084 7.18741C20.5084 10.9249 19.4542 15.8124 15.7168 18.1124Z" fill="white"/>
</svg>
